HIERARCHY
ROOT pelvis
{
  OFFSET 0 100 0
  CHANNELS 6 Xposition Yposition Zposition Zrotation Xrotation Yrotation
  JOINT pelvis_right_femur
  {
    OFFSET -10.78128 -3.44521 -0.5502486
    CHANNELS 3 Zrotation Xrotation Yrotation
    JOINT right_femur_tibia
    {
      OFFSET -0.8047443 -44.0398 -0.1307829
      CHANNELS 3 Zrotation Xrotation Yrotation
      JOINT right_tibia_foot
      {
        OFFSET 3.006224 -47.83518 -5
        CHANNELS 3 Zrotation Xrotation Yrotation
        End Site
        {
          OFFSET 0 -5 15
        }
      }
    }
  }
  JOINT pelvis_left_femur
  {
    OFFSET 10.78128 -3.44521 -0.5502486
    CHANNELS 3 Zrotation Xrotation Yrotation
    JOINT left_femur_tibia
    {
      OFFSET 0.8047443 -44.0398 -0.1307829
      CHANNELS 3 Zrotation Xrotation Yrotation
      JOINT left_tibia_foot
      {
        OFFSET -4.370144 -48.10324 -4.275266
        CHANNELS 3 Zrotation Xrotation Yrotation
        End Site
        {
          OFFSET 0 -5 15
        }
      }
    }
  }
  JOINT pelvis_spine1
  {
    OFFSET 0 6.468898 -3.129235
    CHANNELS 3 Zrotation Xrotation Yrotation
    JOINT spine1
    {
      OFFSET 0 23.15396 4.99043
      CHANNELS 3 Zrotation Xrotation Yrotation
      JOINT spine2
      {
        OFFSET 0 20.79997 -5.064912
        CHANNELS 3 Zrotation Xrotation Yrotation
        JOINT neck
        {
          OFFSET 0 14.38658 9.616178
          CHANNELS 3 Zrotation Xrotation Yrotation
          End Site
          {
            OFFSET 0 20 0
          }
        }
      }
      JOINT right_manubrium
      {
        OFFSET -5.722621 16.35077 3.967754
        CHANNELS 3 Zrotation Xrotation Yrotation
        JOINT right_clavicle
        {
          OFFSET -13.16364 1.694482 -4.693211
          CHANNELS 3 Zrotation Xrotation Yrotation
          JOINT right_humerus
          {
            OFFSET -28.5034 -0.3100689 -2.792744
            CHANNELS 3 Zrotation Xrotation Yrotation
            JOINT right_radius
            {
              OFFSET -25.15693 0.02248979 -1.271978
              CHANNELS 3 Zrotation Xrotation Yrotation
              End Site
              {
                OFFSET -15 0 0
              }
            }
          }
        }
      }
      JOINT left_manubrium
      {
        OFFSET 5.722621 16.35077 3.967754
        CHANNELS 3 Zrotation Xrotation Yrotation
        JOINT left_clavicle
        {
          OFFSET 13.16364 1.694482 -4.693211
          CHANNELS 3 Zrotation Xrotation Yrotation
          JOINT left_humerus
          {
            OFFSET 29.39168 -1.063119 -2.237045
            CHANNELS 3 Zrotation Xrotation Yrotation
            JOINT left_radius
            {
              OFFSET 24.59957 -0.9528479 0.9047498
              CHANNELS 3 Zrotation Xrotation Yrotation
              End Site
              {
                OFFSET 15 -0 -0
              }
            }
          }
        }
      }
    }
  }
}
MOTION
Frames: 11
Frame Time: 0.0416666666667
0 103.5113 0 0.7697253 -1.237525 0.2130929 3.271023 -17.58365 7.516263 -0 37.31208 -0 -5.868428 -13.48283 -3.018768 -7.040093 7.630822 -21.55924 -0 4.637627 -0 7.300915 -18.35782 25.10968 -1.79307 -2.786154 5.118317 3.17176 10.43294 -7.370203 0.3375463 20.9657 7.468589 3.870373 -28.31889 8.776469 5.131244 -21.67268 12.64712 84.85242 36.73831 -16.4805 -0 0 15.73581 -9.751123 9.495847 7.589856 5.445783 -20.9149 -1.400315 -96.13829 22.47828 27.85998 0 0 -14.08791 11.60191 16.68311 0.424956
0.3635543 103.2563 1.520296 0.7483101 -1.168154 0.4280803 3.444755 -19.43707 7.604688 -0 37.61887 -0 -5.95001 -12.96663 -3.283221 -7.06289 9.459898 -21.78037 -0 5.744114 -0 7.257895 -18.70809 24.90338 -1.757788 -2.813543 4.997931 3.231783 10.51007 -7.545194 0.323676 20.92108 7.498285 3.880766 -28.3337 8.78092 5.077426 -21.50338 12.65019 85.37013 36.62252 -17.1992 -0 0 15.20529 -9.764318 9.568773 7.463783 5.514741 -21.23161 -1.525267 -95.64583 22.37974 27.19148 0 0 -14.88111 11.83752 16.62267 0.1585654
0.6431245 102.8483 3.340039 0.5804703 -0.9618723 0.661728 3.674104 -22.24122 6.87557 -0 34.25135 -0 -6.177538 -11.90148 -3.475563 -6.699318 11.72881 -21.03529 -0 5.710142 -0 6.821581 -19.45873 23.86524 -1.8575 -2.562767 4.686224 3.260635 10.32287 -7.807815 0.3838626 20.93285 7.528278 3.860179 -27.69068 8.716039 5.144196 -20.52096 12.46562 86.07045 36.38667 -18.47227 -0 0 13.9786 -10.03742 9.695557 7.266471 5.61061 -21.4552 -1.740858 -94.13104 22.92091 24.79632 0 0 -16.74314 10.9692 15.82906 1.153411
0.8529109 102.2393 5.453626 0.4015561 -0.7351701 0.9029948 3.867146 -24.5634 6.113615 -0 30.42446 -0 -6.431394 -11.09758 -3.566337 -6.324603 13.44203 -20.23341 -0 5.318388 -0 6.417596 -20.09883 22.88389 -1.88032 -2.492403 4.487003 3.320529 10.27559 -8.003621 0.3958526 20.92738 7.569063 3.869584 -27.51414 8.717221 5.151577 -20.05809 12.39717 86.61829 36.28606 -19.34916 -0 0 13.19975 -10.05621 9.74245 7.082272 5.694673 -21.71271 -1.86782 -93.34841 23.06276 23.56044 0 0 -17.826 10.8627 15.57033 1.276343
0.9912343 101.3947 8.014185 0.2082121 -0.6064317 1.168784 3.953624 -26.94611 5.07947 -0 26.12483 -0 -6.613025 -9.826984 -3.694718 -5.910263 15.27782 -19.03425 -0 5.069166 -0 5.687014 -20.7597 21.53359 -1.932668 -2.388698 4.242402 3.39447 10.15801 -8.207947 0.4155602 20.95042 7.626746 3.889112 -27.30917 8.737447 5.198015 -19.47305 12.29772 87.17691 36.25195 -20.29593 -0 0 12.29986 -9.994902 9.741457 6.838225 5.794376 -21.9411 -1.9734 -92.49539 23.32059 22.12479 0 0 -18.97742 10.68821 15.29088 1.475503
1.067652 100.3331 11.11146 0.03408395 -0.6175351 1.46961 3.920462 -29.0213 3.941255 -0 22.09061 -0 -6.687944 -8.253641 -3.862703 -5.538883 16.98556 -17.61166 -0 5.242892 -0 4.700973 -21.29173 19.99744 -1.96199 -2.325298 4.0285 3.469509 10.08753 -8.401983 0.4247969 20.96045 7.680962 3.909933 -27.18801 8.761696 5.221014 -19.00833 12.22728 87.71955 36.20717 -21.16959 -0 0 11.50129 -9.920537 9.744745 6.613839 5.887958 -22.19104 -2.074238 -91.77466 23.46244 20.92464 0 0 -19.99725 10.66069 15.10387 1.506515
1.094068 99.0933 14.87472 -0.1121742 -0.8327922 1.816548 3.758436 -30.68582 2.672226 -0 18.41552 -0 -6.618353 -6.248734 -4.106032 -5.218101 18.53974 -15.86119 -0 6.197829 -0 3.344976 -21.60738 18.19092 -1.994485 -2.258326 3.811461 3.54503 10.00847 -8.593978 0.4350308 20.97461 7.736517 3.931623 -27.065 8.788238 5.248805 -18.53431 12.15368 88.25738 36.16556 -22.03904 -0 0 10.6978 -9.836378 9.74074 6.384501 5.982146 -22.4337 -2.170548 -91.05609 23.60599 19.71169 0 0 -21.01028 10.62594 14.918 1.545451
1.087619 97.75629 19.3929 -0.2152647 -1.276319 2.207246 3.534403 -31.67177 1.413993 -0 15.37056 -0 -6.409294 -3.982968 -4.431011 -4.964149 19.71418 -13.86933 -0 8.32374 -0 1.671231 -21.5442 16.23901 -2.017484 -2.199421 3.610432 3.613191 9.951528 -8.78108 0.4439426 20.97999 7.784607 3.948312 -26.94182 8.806189 5.263208 -18.09761 12.08917 88.7873 36.08682 -22.87686 -0 0 9.937013 -9.788121 9.75472 6.179087 6.069289 -22.68237 -2.275104 -90.35768 23.69689 18.55307 0 0 -22.00134 10.59925 14.73035 1.575606
1.066198 96.45006 24.70571 -0.2642065 -1.968593 2.620003 3.370314 -31.71053 0.3514993 -0 13.14095 -0 -6.085791 -1.675219 -4.844519 -4.759376 20.25785 -11.73405 -0 12.16272 -0 -0.2478791 -20.91109 14.29267 -2.035121 -2.137655 3.428934 3.666716 9.909749 -8.956725 0.4551353 20.97801 7.820756 3.956149 -26.78744 8.808832 5.266853 -17.68413 12.02847 89.28749 35.96064 -23.66017 -0 0 9.230105 -9.801297 9.793092 6.010063 6.144617 -22.91939 -2.38949 -89.66322 23.75312 17.4244 0 0 -22.97135 10.52331 14.50862 1.662914
1.043571 95.35833 30.75247 -0.2494613 -2.900029 3.005546 3.435982 -30.48558 -0.2361379 -0 11.97875 -0 -5.709046 0.2834734 -5.328117 -4.558584 19.8335 -9.676988 -0 18.27451 -0 -2.231603 -19.50848 12.63475 -2.04134 -2.073707 3.298645 3.687399 9.901181 -9.098089 0.4702777 20.96104 7.830469 3.94577 -26.57873 8.780257 5.248512 -17.34313 11.97913 89.69315 35.75509 -24.28373 -0 0 8.677676 -9.93848 9.879103 5.925956 6.191376 -23.11676 -2.516752 -89.01868 23.75121 16.43135 0 0 -23.83764 10.35035 14.23001 1.863069
1.020711 94.70326 37.33828 -0.173901 -4.02069 3.282702 3.876688 -27.70578 -0.08038453 -0 12.0459 -0 -5.381421 1.389575 -5.825415 -4.289583 18.07617 -7.989007 -0 27.04856 -0 -4.036916 -17.19349 11.61087 -2.034617 -2.00253 3.272698 3.644812 9.935726 -9.154814 0.4937598 20.92612 7.792182 3.904493 -26.28039 8.700211 5.202401 -17.15073 11.94802 89.86082 35.45357 -24.53297 -0 0 8.467291 -10.27671 10.03126 6.002669 6.180931 -23.19731 -2.644975 -88.53203 23.69411 15.77808 0 0 -24.40269 9.984576 13.86665 2.28726
